<svg xmlns="http://www.w3.org/2000/svg" version="1.1" xmlns:xlink="http://www.w3.org/1999/xlink" xmlns:svgjs="http://svgjs.dev/svgjs" width="2000" height="1500" viewBox="0 0 2000 1500"><rect width="2000" height="1500" fill="#ffffff"></rect><g transform="matrix(0.75,0,0,0.75,249.090909090909,282.7536437246963)"><svg viewBox="0 0 396 247" data-background-color="#ffffff" preserveAspectRatio="xMidYMid meet" height="1247" width="2000" xmlns="http://www.w3.org/2000/svg" xmlns:xlink="http://www.w3.org/1999/xlink"><g id="tight-bounds" transform="matrix(1,0,0,1,0.2400000000000091,-0.09999999999999432)"><svg viewBox="0 0 395.52 247.2" height="247.2" width="395.52"><g><svg></svg></g><g><svg viewBox="0 0 395.52 247.2" height="247.2" width="395.52"><g transform="matrix(1,0,0,1,127.17070834597875,47.215199999999996)"><svg viewBox="0 0 141.17858330804248 152.7696" height="152.7696" width="141.17858330804248"><g><svg viewBox="0 0 141.17858330804248 152.7696" height="152.7696" width="141.17858330804248"><g><svg viewBox="0 0 141.17858330804248 152.7696" height="152.7696" width="141.17858330804248"><g><svg viewBox="0 0 141.17858330804248 152.7696" height="152.7696" width="141.17858330804248"><g id="textblocktransform"><svg viewBox="0 0 141.17858330804248 152.7696" height="152.7696" width="141.17858330804248" id="textblock"><g><svg viewBox="0 0 141.17858330804248 152.7696" height="152.7696" width="141.17858330804248"><g transform="matrix(1,0,0,1,0,0)"><svg width="141.17858330804248" viewBox="-0.75 -32.45 30.45 32.95" height="152.7696" data-palette-color="#7a26c1"><path d="M16.6 0.5L16.45 0.15 16.65-1.8Q19.2-2 20.15-2.4 21.1-2.8 21.1-3.7L21.1-3.7Q21.1-4.7 20.65-6.1L20.65-6.1 19-11.55Q17.8-11.6 13.8-11.6L13.8-11.6Q11.4-11.6 8.35-11.2L8.35-11.2 6.5-6Q6.05-4.65 6.05-4.05L6.05-4.05Q6.05-2.95 6.75-2.48 7.45-2 9.05-2L9.05-2 11.9-2 12-1.8 11.7 0.35Q11.1 0.3 8.95 0.15 6.8 0 4.75 0L4.75 0Q2.9 0 1.33 0.05-0.25 0.1-0.75 0.15L-0.75 0.15-0.35-2.2Q1.05-2.35 1.9-3.18 2.75-4 3.55-6.05L3.55-6.05 13.3-31.6 16.45-32.45 16.85-32.45Q17.15-31.25 18.38-26.9 19.6-22.55 21.38-16.6 23.15-10.65 24.8-5.65L24.8-5.65Q25.4-3.8 26.4-3.05 27.4-2.3 29.6-2.1L29.6-2.1 29.7-1.9 29.35 0.15Q28.75 0.15 27.18 0.08 25.6 0 24.05 0L24.05 0Q21.65 0 19.43 0.2 17.2 0.4 16.6 0.5L16.6 0.5ZM9.25-13.65L13.65-13.65Q15.45-13.65 18.3-13.9L18.3-13.9 14.35-27 14-27 9.25-13.65Z" opacity="1" transform="matrix(1,0,0,1,0,0)" fill="#7a26c1" class="wordmark-text-0" data-fill-palette-color="primary" id="text-0"></path></svg></g></svg></g></svg></g></svg></g></svg></g></svg></g></svg></g><path d="M309.472 41.215L309.472 0 62.272 0 62.272 247.2 309.472 247.2 309.472 205.985 295.695 205.985 295.695 233.423 76.049 233.423 76.049 13.777 295.695 13.777 295.695 41.215Z" fill="#7a26c1" stroke="transparent" data-fill-palette-color="tertiary"></path></svg></g><defs></defs></svg><rect width="395.52" height="247.2" fill="none" stroke="none" visibility="hidden"></rect></g></svg></g></svg>